<svg version="1" xmlns="http://www.w3.org/2000/svg" width="933.333" height="933.333" viewBox="0 0 700.000000 700.000000"><path d="M293 253.2c-36.8 3.7-68.8 23.2-86.7 52.8-7.9 13.1-13.6 30.5-14.9 45.7l-.6 7.2 5.4 6.1c6.2 6.8 11.8 17.3 14.4 27 1.9 7.2 2.7 25.1 1.5 31.7-.8 4.2-.7 4.4 4.9 11 12.4 14.7 29 25.7 49.2 32.4 5.1 1.7 10.1 3.3 11.3 3.5 1.1.2 3.1.6 4.5.9 13.5 2.9 38.4 2.7 53.5-.4 14.7-2.9 33.9-11.4 45-19.6 28.7-21.5 43.8-51.4 43.9-87 .1-18.6-1.5-28.1-7.2-42.8l-2.6-6.7H357l4 5.1c8.2 10.4 13.1 24.9 13.5 40.4.6 21.3-5.8 38.6-19.4 52.1-14.5 14.4-33.4 20.5-56.6 18.1-25.5-2.6-46.9-20.7-54.7-46.5-2.4-7.7-3.3-28.1-1.6-35.3.5-2.4 1.2-5.5 1.4-6.8 1.5-7.8 9.7-21.5 17.4-29.1 7-7.1 19.4-14.3 26.6-15.6 1.5-.3 3.1-.7 3.6-1 2.3-1.4 19.9-1.8 89.8-1.8l75.5-.1.3 87.8.2 87.7 24.8-.2 24.7-.3.1-87c.1-47.9.2-87.2.3-87.5 0-.3 15.4-.5 34.1-.5h34v-42.1H437.8c-75.5 0-140.7.4-144.8.8zM576.5 253.8c.2.7 9.3 13.7 20 28.8 17.9 25 19.5 27.6 18.4 29.7-1.2 2.1-19 27.5-31.6 45-3.5 4.8-6.6 9.4-6.9 10.2-.5 1.3 2.2 1.5 19.8 1.5 23.4 0 20.8 1 28.9-11 2.3-3.6 4.7-7 5.1-7.5.5-.6 2.2-2.9 3.9-5.3 1.7-2.3 3.5-4 4-3.7.4.3 5 6.5 10 13.6 5.1 7.2 9.7 13.3 10.3 13.5.7.3 10.2.3 21.3.2l20.1-.3-8.2-11.5c-23.5-32.9-32.6-45.9-32.6-46.5 0-.4 1.8-3.3 4.1-6.4 4.4-6 24.1-33.6 31.4-43.9 2.5-3.5 4.5-6.6 4.5-7 0-.5-9.3-.8-20.6-.8h-20.5l-10.2 14.3-10.1 14.2-3.7-5.2c-2.1-2.8-6.6-9.3-10.2-14.2l-6.5-9h-20.6c-17-.1-20.6.1-20.1 1.3z"/><path d="M0 363v107.1l65.3-.4c66.8-.4 68.2-.5 82.5-3.8 31.1-7.2 48.1-26.1 48.3-53.4.1-24.1-11.4-42.3-32.1-51-2.5-1-4.9-2.2-5.3-2.5-.5-.4 1.3-2.1 4-3.8 14.5-9.3 22.8-25.3 22.5-43.7 0-5-.3-9.7-.5-10.5-.2-.8-.7-2.9-1.2-4.5-3.9-15.2-20.2-29.5-40.2-35.4-15-4.5-21.6-4.8-84-5L0 255.9V363zm118.3-67.1c12.4 4 18.4 12.9 17.3 25.3-.9 9.7-7.9 17-19.6 20.5-4.6 1.4-10.7 1.7-36 1.7l-30.5.1-.2-24c-.1-13.2-.1-24.5.2-25.2.3-.9 8.3-1.1 31.2-.9 28.6.3 31.3.5 37.6 2.5zm-1.8 84.5c20.3 2.2 29.6 10.4 29.7 26.2.1 10.8-4.6 17.6-15.3 22.3-7.1 3.1-9.7 3.3-46.5 3.7l-35.1.2-.1-26.1c0-14.4.4-26.4.8-26.7 1.1-.7 59.3-.3 66.5.4z"/></svg>